<?xml version="1.0" encoding="utf-8"?>
<svg width="372" height="407" viewBox="0 0 372 407" xmlns="http://www.w3.org/2000/svg">
<rect id="frame" x="0" y="0" width="372" height="407" fill="#f7f7f7" stroke="none" stroke-width="0"/>

<!-- Association can validate -->
<g class="page_0_r5Xe3eVd diagram_page" visibility="visible">
	<line x1="178" y1="60" x2="54" y2="60" stroke="#7fbc41" stroke-width="2"/>
	<text x="111" y="77" fill="#c51b7d" font-family="Verdana" font-size="12">1,1</text>
	<line x1="54" y1="186" x2="54" y2="60" stroke="#7fbc41" stroke-width="2"/>
	<text x="59" y="102" fill="#c51b7d" font-family="Verdana" font-size="12">1,n</text>
	<g>
		<path d="M84 35 a14 14 90 0 1 14 14 V60 h-88 V49 a14 14 90 0 1 14 -14" fill="#b8e186" stroke="#b8e186" stroke-width="0"/>
		<path d="M98 60 v11 a14 14 90 0 1 -14 14 H24 a14 14 90 0 1 -14 -14 V60 H88" fill="#e6f5d0" stroke="#e6f5d0" stroke-width="0"/>
		<rect x="10" y="35" width="88" height="50" fill="none" rx="14" stroke="#7fbc41" stroke-width="2"/>
		<line x1="10" y1="60" x2="98" y2="60" stroke="#7fbc41" stroke-width="1"/>
		<text x="17" y="52.75" fill="#000" font-family="Verdana" font-size="12">can validate</text>
	</g>
</g>

<!-- Association can request -->
<g class="page_0_r5Xe3eVd diagram_page" visibility="visible">
	<line x1="178" y1="60" x2="178" y2="186" stroke="#7fbc41" stroke-width="2"/>
	<text x="183" y="128" fill="#c51b7d" font-family="Verdana" font-size="12">1,1</text>
	<line x1="178" y1="347" x2="178" y2="186" stroke="#7fbc41" stroke-width="2"/>
	<text x="183" y="288" fill="#c51b7d" font-family="Verdana" font-size="12">1,n</text>
	<g>
		<path d="M207 161 a14 14 90 0 1 14 14 V186 h-86 V175 a14 14 90 0 1 14 -14" fill="#b8e186" stroke="#b8e186" stroke-width="0"/>
		<path d="M221 186 v11 a14 14 90 0 1 -14 14 H149 a14 14 90 0 1 -14 -14 V186 H86" fill="#e6f5d0" stroke="#e6f5d0" stroke-width="0"/>
		<rect x="135" y="161" width="86" height="50" fill="none" rx="14" stroke="#7fbc41" stroke-width="2"/>
		<line x1="135" y1="186" x2="221" y2="186" stroke="#7fbc41" stroke-width="1"/>
		<text x="142" y="178.75" fill="#000" font-family="Verdana" font-size="12">can request</text>
	</g>
</g>

<!-- Association can create -->
<g class="page_0_r5Xe3eVd diagram_page" visibility="visible">
	<line x1="178" y1="347" x2="54" y2="347" stroke="#7fbc41" stroke-width="2"/>
	<text x="99" y="364" fill="#c51b7d" font-family="Verdana" font-size="12">1,1</text>
	<line x1="54" y1="186" x2="54" y2="347" stroke="#7fbc41" stroke-width="2"/>
	<text x="59" y="279" fill="#c51b7d" font-family="Verdana" font-size="12">1,n</text>
	<g>
		<path d="M79 322 a14 14 90 0 1 14 14 V347 h-78 V336 a14 14 90 0 1 14 -14" fill="#b8e186" stroke="#b8e186" stroke-width="0"/>
		<path d="M93 347 v11 a14 14 90 0 1 -14 14 H29 a14 14 90 0 1 -14 -14 V347 H78" fill="#e6f5d0" stroke="#e6f5d0" stroke-width="0"/>
		<rect x="15" y="322" width="78" height="50" fill="none" rx="14" stroke="#7fbc41" stroke-width="2"/>
		<line x1="15" y1="347" x2="93" y2="347" stroke="#7fbc41" stroke-width="1"/>
		<text x="22" y="339.75" fill="#000" font-family="Verdana" font-size="12">can create</text>
	</g>
</g>

<!-- Association can have -->
<g class="page_0_r5Xe3eVd diagram_page" visibility="visible">
	<line x1="178" y1="347" x2="308" y2="347" stroke="#7fbc41" stroke-width="2"/>
	<text x="236" y="364" fill="#c51b7d" font-family="Verdana" font-size="12">1,1</text>
	<line x1="308" y1="186" x2="308" y2="347" stroke="#7fbc41" stroke-width="2"/>
	<text x="313" y="288" fill="#c51b7d" font-family="Verdana" font-size="12">1,n</text>
	<g>
		<path d="M329 322 a14 14 90 0 1 14 14 V347 h-70 V336 a14 14 90 0 1 14 -14" fill="#b8e186" stroke="#b8e186" stroke-width="0"/>
		<path d="M343 347 v11 a14 14 90 0 1 -14 14 H287 a14 14 90 0 1 -14 -14 V347 H70" fill="#e6f5d0" stroke="#e6f5d0" stroke-width="0"/>
		<rect x="273" y="322" width="70" height="50" fill="none" rx="14" stroke="#7fbc41" stroke-width="2"/>
		<line x1="273" y1="347" x2="343" y2="347" stroke="#7fbc41" stroke-width="1"/>
		<text x="281" y="339.75" fill="#000" font-family="Verdana" font-size="12">can have</text>
	</g>
</g>

<!-- Entity Transaction -->
<g class="page_0_r5Xe3eVd diagram_page" visibility="visible">
	<g>
		<rect x="137" y="9" width="82" height="25" fill="#f1b6da" stroke="#f1b6da" stroke-width="0" opacity="1"/>
		<rect x="137" y="34" width="82" height="77" fill="#fde0ef" stroke="#fde0ef" stroke-width="0" opacity="1"/>
		<rect x="137" y="9" width="82" height="102" fill="none" stroke="#de77ae" stroke-width="2" opacity="1"/>
		<line x1="137" y1="34" x2="219" y2="34" stroke="#de77ae" stroke-width="1"/>
	</g>
	<text x="143" y="26.75" fill="#000" font-family="Verdana" font-size="12">Transaction</text>
	<text x="142" y="51.8" fill="#000" font-family="Verdana" font-size="12">id</text>
	<line x1="142" y1="54" x2="154" y2="54" stroke="#000" stroke-width="1"/>
	<text x="142" y="68.8" fill="#000" font-family="Verdana" font-size="12">date</text>
	<text x="142" y="85.8" fill="#000" font-family="Verdana" font-size="12">status</text>
	<text x="142" y="102.8" fill="#000" font-family="Verdana" font-size="12">type</text>
</g>

<!-- Entity Admin -->
<g class="page_0_r5Xe3eVd diagram_page" visibility="visible">
	<g>
		<rect x="9" y="110" width="90" height="25" fill="#f1b6da" stroke="#f1b6da" stroke-width="0" opacity="1"/>
		<rect x="9" y="135" width="90" height="127" fill="#fde0ef" stroke="#fde0ef" stroke-width="0" opacity="1"/>
		<rect x="9" y="110" width="90" height="152" fill="none" stroke="#de77ae" stroke-width="2" opacity="1"/>
		<line x1="9" y1="135" x2="99" y2="135" stroke="#de77ae" stroke-width="1"/>
	</g>
	<text x="35" y="127.75" fill="#000" font-family="Verdana" font-size="12">Admin</text>
	<text x="14" y="152.8" fill="#000" font-family="Verdana" font-size="12">id</text>
	<line x1="14" y1="155" x2="26" y2="155" stroke="#000" stroke-width="1"/>
	<text x="14" y="169.8" fill="#000" font-family="Verdana" font-size="12">firstname</text>
	<text x="14" y="186.8" fill="#000" font-family="Verdana" font-size="12">lastname</text>
	<text x="14" y="203.8" fill="#000" font-family="Verdana" font-size="12">phone</text>
	<text x="14" y="220.8" fill="#000" font-family="Verdana" font-size="12">adress</text>
	<text x="14" y="237.8" fill="#000" font-family="Verdana" font-size="12">creation date</text>
	<text x="14" y="254.8" fill="#000" font-family="Verdana" font-size="12">permissions</text>
</g>

<!-- Entity Client -->
<g class="page_0_r5Xe3eVd diagram_page" visibility="visible">
	<g>
		<rect x="253" y="101" width="110" height="25" fill="#f1b6da" stroke="#f1b6da" stroke-width="0" opacity="1"/>
		<rect x="253" y="126" width="110" height="145" fill="#fde0ef" stroke="#fde0ef" stroke-width="0" opacity="1"/>
		<rect x="253" y="101" width="110" height="170" fill="none" stroke="#de77ae" stroke-width="2" opacity="1"/>
		<line x1="253" y1="126" x2="363" y2="126" stroke="#de77ae" stroke-width="1"/>
	</g>
	<text x="291" y="118.75" fill="#000" font-family="Verdana" font-size="12">Client</text>
	<text x="258" y="143.8" fill="#000" font-family="Verdana" font-size="12">id</text>
	<line x1="258" y1="146" x2="270" y2="146" stroke="#000" stroke-width="1"/>
	<text x="258" y="160.8" fill="#000" font-family="Verdana" font-size="12">account number</text>
	<text x="258" y="177.8" fill="#000" font-family="Verdana" font-size="12">firstname</text>
	<text x="258" y="194.8" fill="#000" font-family="Verdana" font-size="12">lastname</text>
	<text x="258" y="211.8" fill="#000" font-family="Verdana" font-size="12">phone</text>
	<text x="258" y="228.8" fill="#000" font-family="Verdana" font-size="12">adress</text>
	<text x="258" y="245.8" fill="#000" font-family="Verdana" font-size="12">creation date</text>
	<text x="258" y="262.8" fill="#000" font-family="Verdana" font-size="12">permissions</text>
</g>

<!-- Entity Account -->
<g class="page_0_r5Xe3eVd diagram_page" visibility="visible">
	<g>
		<rect x="125" y="296" width="106" height="25" fill="#f1b6da" stroke="#f1b6da" stroke-width="0" opacity="1"/>
		<rect x="125" y="321" width="106" height="77" fill="#fde0ef" stroke="#fde0ef" stroke-width="0" opacity="1"/>
		<rect x="125" y="296" width="106" height="102" fill="none" stroke="#de77ae" stroke-width="2" opacity="1"/>
		<line x1="125" y1="321" x2="231" y2="321" stroke="#de77ae" stroke-width="1"/>
	</g>
	<text x="154" y="313.75" fill="#000" font-family="Verdana" font-size="12">Account</text>
	<text x="130" y="338.8" fill="#000" font-family="Verdana" font-size="12">number</text>
	<line x1="130" y1="341" x2="178" y2="341" stroke="#000" stroke-width="1"/>
	<text x="130" y="355.8" fill="#000" font-family="Verdana" font-size="12">client id</text>
	<text x="130" y="372.8" fill="#000" font-family="Verdana" font-size="12">transactions list</text>
	<text x="130" y="389.8" fill="#000" font-family="Verdana" font-size="12">creation date</text>
</g>
</svg>