<?xml version="1.0" encoding="utf-8"?>
<svg width="388" height="416" viewBox="0 0 388 416" xmlns="http://www.w3.org/2000/svg">
<rect id="frame" x="0" y="0" width="388" height="416" fill="#f7f7f7" stroke="none" stroke-width="0"/>

<!-- Association can validate -->
<g class="page_0_IMDGDh6N diagram_page" visibility="visible">
	<line x1="194" y1="60" x2="64" y2="60" stroke="#7fbc41" stroke-width="2"/>
	<text x="127" y="77" fill="#c51b7d" font-family="Verdana" font-size="12">1,1</text>
	<line x1="64" y1="195" x2="64" y2="60" stroke="#7fbc41" stroke-width="2"/>
	<text x="69" y="102" fill="#c51b7d" font-family="Verdana" font-size="12">1,n</text>
	<g>
		<path d="M94 35 a14 14 90 0 1 14 14 V60 h-88 V49 a14 14 90 0 1 14 -14" fill="#b8e186" stroke="#b8e186" stroke-width="0"/>
		<path d="M108 60 v11 a14 14 90 0 1 -14 14 H34 a14 14 90 0 1 -14 -14 V60 H88" fill="#e6f5d0" stroke="#e6f5d0" stroke-width="0"/>
		<rect x="20" y="35" width="88" height="50" fill="none" rx="14" stroke="#7fbc41" stroke-width="2"/>
		<line x1="20" y1="60" x2="108" y2="60" stroke="#7fbc41" stroke-width="1"/>
		<text x="27" y="52.75" fill="#000" font-family="Verdana" font-size="12">can validate</text>
	</g>
</g>

<!-- Association can request -->
<g class="page_0_IMDGDh6N diagram_page" visibility="visible">
	<line x1="194" y1="60" x2="194" y2="195" stroke="#7fbc41" stroke-width="2"/>
	<text x="199" y="128" fill="#c51b7d" font-family="Verdana" font-size="12">1,1</text>
	<line x1="194" y1="356" x2="194" y2="195" stroke="#7fbc41" stroke-width="2"/>
	<text x="199" y="297" fill="#c51b7d" font-family="Verdana" font-size="12">1,n</text>
	<g>
		<path d="M223 170 a14 14 90 0 1 14 14 V195 h-86 V184 a14 14 90 0 1 14 -14" fill="#b8e186" stroke="#b8e186" stroke-width="0"/>
		<path d="M237 195 v11 a14 14 90 0 1 -14 14 H165 a14 14 90 0 1 -14 -14 V195 H86" fill="#e6f5d0" stroke="#e6f5d0" stroke-width="0"/>
		<rect x="151" y="170" width="86" height="50" fill="none" rx="14" stroke="#7fbc41" stroke-width="2"/>
		<line x1="151" y1="195" x2="237" y2="195" stroke="#7fbc41" stroke-width="1"/>
		<text x="158" y="187.75" fill="#000" font-family="Verdana" font-size="12">can request</text>
	</g>
</g>

<!-- Association can create -->
<g class="page_0_IMDGDh6N diagram_page" visibility="visible">
	<line x1="194" y1="356" x2="64" y2="356" stroke="#7fbc41" stroke-width="2"/>
	<text x="115" y="373" fill="#c51b7d" font-family="Verdana" font-size="12">1,1</text>
	<line x1="64" y1="195" x2="64" y2="356" stroke="#7fbc41" stroke-width="2"/>
	<text x="69" y="297" fill="#c51b7d" font-family="Verdana" font-size="12">1,n</text>
	<g>
		<path d="M89 331 a14 14 90 0 1 14 14 V356 h-78 V345 a14 14 90 0 1 14 -14" fill="#b8e186" stroke="#b8e186" stroke-width="0"/>
		<path d="M103 356 v11 a14 14 90 0 1 -14 14 H39 a14 14 90 0 1 -14 -14 V356 H78" fill="#e6f5d0" stroke="#e6f5d0" stroke-width="0"/>
		<rect x="25" y="331" width="78" height="50" fill="none" rx="14" stroke="#7fbc41" stroke-width="2"/>
		<line x1="25" y1="356" x2="103" y2="356" stroke="#7fbc41" stroke-width="1"/>
		<text x="32" y="348.75" fill="#000" font-family="Verdana" font-size="12">can create</text>
	</g>
</g>

<!-- Association can have -->
<g class="page_0_IMDGDh6N diagram_page" visibility="visible">
	<line x1="194" y1="356" x2="324" y2="356" stroke="#7fbc41" stroke-width="2"/>
	<text x="252" y="373" fill="#c51b7d" font-family="Verdana" font-size="12">1,1</text>
	<line x1="324" y1="195" x2="324" y2="356" stroke="#7fbc41" stroke-width="2"/>
	<text x="329" y="297" fill="#c51b7d" font-family="Verdana" font-size="12">1,n</text>
	<g>
		<path d="M345 331 a14 14 90 0 1 14 14 V356 h-70 V345 a14 14 90 0 1 14 -14" fill="#b8e186" stroke="#b8e186" stroke-width="0"/>
		<path d="M359 356 v11 a14 14 90 0 1 -14 14 H303 a14 14 90 0 1 -14 -14 V356 H70" fill="#e6f5d0" stroke="#e6f5d0" stroke-width="0"/>
		<rect x="289" y="331" width="70" height="50" fill="none" rx="14" stroke="#7fbc41" stroke-width="2"/>
		<line x1="289" y1="356" x2="359" y2="356" stroke="#7fbc41" stroke-width="1"/>
		<text x="297" y="348.75" fill="#000" font-family="Verdana" font-size="12">can have</text>
	</g>
</g>

<!-- Entity Transaction -->
<g class="page_0_IMDGDh6N diagram_page" visibility="visible">
	<g>
		<rect x="153" y="9" width="82" height="25" fill="#f1b6da" stroke="#f1b6da" stroke-width="0" opacity="1"/>
		<rect x="153" y="34" width="82" height="77" fill="#fde0ef" stroke="#fde0ef" stroke-width="0" opacity="1"/>
		<rect x="153" y="9" width="82" height="102" fill="none" stroke="#de77ae" stroke-width="2" opacity="1"/>
		<line x1="153" y1="34" x2="235" y2="34" stroke="#de77ae" stroke-width="1"/>
	</g>
	<text x="159" y="26.75" fill="#000" font-family="Verdana" font-size="12">Transaction</text>
	<text x="158" y="51.8" fill="#000" font-family="Verdana" font-size="12">id</text>
	<line x1="158" y1="54" x2="170" y2="54" stroke="#000" stroke-width="1"/>
	<text x="158" y="68.8" fill="#000" font-family="Verdana" font-size="12">date</text>
	<text x="158" y="85.8" fill="#000" font-family="Verdana" font-size="12">status</text>
	<text x="158" y="102.8" fill="#000" font-family="Verdana" font-size="12">type</text>
</g>

<!-- Entity Admin -->
<g class="page_0_IMDGDh6N diagram_page" visibility="visible">
	<g>
		<rect x="9" y="110" width="110" height="25" fill="#f1b6da" stroke="#f1b6da" stroke-width="0" opacity="1"/>
		<rect x="9" y="135" width="110" height="145" fill="#fde0ef" stroke="#fde0ef" stroke-width="0" opacity="1"/>
		<rect x="9" y="110" width="110" height="170" fill="none" stroke="#de77ae" stroke-width="2" opacity="1"/>
		<line x1="9" y1="135" x2="119" y2="135" stroke="#de77ae" stroke-width="1"/>
	</g>
	<text x="45" y="127.75" fill="#000" font-family="Verdana" font-size="12">Admin</text>
	<text x="14" y="152.8" fill="#000" font-family="Verdana" font-size="12">id</text>
	<line x1="14" y1="155" x2="26" y2="155" stroke="#000" stroke-width="1"/>
	<text x="14" y="169.8" fill="#000" font-family="Verdana" font-size="12">account number</text>
	<text x="14" y="186.8" fill="#000" font-family="Verdana" font-size="12">firstname</text>
	<text x="14" y="203.8" fill="#000" font-family="Verdana" font-size="12">lastname</text>
	<text x="14" y="220.8" fill="#000" font-family="Verdana" font-size="12">phone</text>
	<text x="14" y="237.8" fill="#000" font-family="Verdana" font-size="12">adress</text>
	<text x="14" y="254.8" fill="#000" font-family="Verdana" font-size="12">creation date</text>
	<text x="14" y="271.8" fill="#000" font-family="Verdana" font-size="12">permissions</text>
</g>

<!-- Entity Client -->
<g class="page_0_IMDGDh6N diagram_page" visibility="visible">
	<g>
		<rect x="269" y="110" width="110" height="25" fill="#f1b6da" stroke="#f1b6da" stroke-width="0" opacity="1"/>
		<rect x="269" y="135" width="110" height="145" fill="#fde0ef" stroke="#fde0ef" stroke-width="0" opacity="1"/>
		<rect x="269" y="110" width="110" height="170" fill="none" stroke="#de77ae" stroke-width="2" opacity="1"/>
		<line x1="269" y1="135" x2="379" y2="135" stroke="#de77ae" stroke-width="1"/>
	</g>
	<text x="307" y="127.75" fill="#000" font-family="Verdana" font-size="12">Client</text>
	<text x="274" y="152.8" fill="#000" font-family="Verdana" font-size="12">id</text>
	<line x1="274" y1="155" x2="286" y2="155" stroke="#000" stroke-width="1"/>
	<text x="274" y="169.8" fill="#000" font-family="Verdana" font-size="12">account number</text>
	<text x="274" y="186.8" fill="#000" font-family="Verdana" font-size="12">firstname</text>
	<text x="274" y="203.8" fill="#000" font-family="Verdana" font-size="12">lastname</text>
	<text x="274" y="220.8" fill="#000" font-family="Verdana" font-size="12">phone</text>
	<text x="274" y="237.8" fill="#000" font-family="Verdana" font-size="12">adress</text>
	<text x="274" y="254.8" fill="#000" font-family="Verdana" font-size="12">creation date</text>
	<text x="274" y="271.8" fill="#000" font-family="Verdana" font-size="12">permissions</text>
</g>

<!-- Entity Account -->
<g class="page_0_IMDGDh6N diagram_page" visibility="visible">
	<g>
		<rect x="141" y="305" width="106" height="25" fill="#f1b6da" stroke="#f1b6da" stroke-width="0" opacity="1"/>
		<rect x="141" y="330" width="106" height="77" fill="#fde0ef" stroke="#fde0ef" stroke-width="0" opacity="1"/>
		<rect x="141" y="305" width="106" height="102" fill="none" stroke="#de77ae" stroke-width="2" opacity="1"/>
		<line x1="141" y1="330" x2="247" y2="330" stroke="#de77ae" stroke-width="1"/>
	</g>
	<text x="170" y="322.75" fill="#000" font-family="Verdana" font-size="12">Account</text>
	<text x="146" y="347.8" fill="#000" font-family="Verdana" font-size="12">number</text>
	<line x1="146" y1="350" x2="194" y2="350" stroke="#000" stroke-width="1"/>
	<text x="146" y="364.8" fill="#000" font-family="Verdana" font-size="12">client id</text>
	<text x="146" y="381.8" fill="#000" font-family="Verdana" font-size="12">transactions list</text>
	<text x="146" y="398.8" fill="#000" font-family="Verdana" font-size="12">creation date</text>
</g>
</svg>